<?xml version="1.0" standalone="no"?>
<!DOCTYPE svg PUBLIC "-//W3C//DTD SVG 20010904//EN"
 "http://www.w3.org/TR/2001/REC-SVG-20010904/DTD/svg10.dtd">
<svg version="1.0" xmlns="http://www.w3.org/2000/svg"
 width="868.000000pt" height="327.000000pt" viewBox="0 0 868.000000 327.000000"
 preserveAspectRatio="xMidYMid meet">

<g transform="translate(0.000000,327.000000) scale(0.100000,-0.100000)"
fill="#000000" stroke="none">
<path d="M0 1635 l0 -1635 4340 0 4340 0 0 1635 0 1635 -4340 0 -4340 0 0
-1635z m4048 1222 c1 -49 6 -87 10 -85 62 33 91 40 141 35 65 -7 99 -29 126
-83 17 -33 20 -63 23 -196 l3 -158 -54 0 -55 0 -4 145 c-3 142 -3 145 -30 172
-37 36 -96 38 -132 4 -25 -23 -26 -28 -28 -170 l-3 -146 -55 0 c-53 0 -55 1
-54 28 0 15 1 144 2 288 l2 260 53 -3 52 -3 3 -88z m2822 -2 l0 -96 31 23 c43
32 154 33 195 2 65 -48 69 -60 72 -245 l3 -169 -55 0 -56 0 0 138 c0 157 -7
179 -63 201 -34 13 -42 12 -73 -2 -19 -9 -39 -28 -44 -43 -6 -14 -10 -86 -10
-160 l0 -134 -55 0 -55 0 0 290 0 290 55 0 55 0 0 -95z m1460 -196 l0 -290
-52 3 -53 3 -3 288 -2 287 55 0 55 0 0 -291z m-3589 123 c43 -22 59 -38 82
-82 26 -50 28 -62 24 -127 -5 -83 -30 -130 -94 -173 -29 -20 -51 -26 -112 -28
-94 -4 -150 21 -195 86 -54 77 -46 211 16 283 63 72 185 90 279 41z m422 15
c18 -8 39 -22 47 -32 14 -17 15 -16 20 11 4 20 11 29 23 28 9 -1 33 -2 53 -3
l35 -1 -3 -253 -3 -254 -27 -40 c-35 -54 -85 -83 -152 -90 -100 -10 -196 30
-231 97 -26 51 -21 60 34 60 42 0 54 -5 79 -30 25 -25 39 -30 77 -30 25 0 55
5 66 10 29 16 49 64 49 116 l0 47 -22 -20 c-13 -11 -33 -26 -45 -32 -30 -16
-129 -14 -161 3 -94 49 -137 180 -97 298 36 104 156 157 258 115z m545 -2 c77
-33 121 -102 122 -192 l0 -51 -150 0 c-83 1 -153 -2 -156 -5 -13 -13 7 -53 35
-70 44 -26 97 -22 125 8 20 21 32 25 80 25 31 0 56 -3 56 -7 0 -19 -42 -73
-76 -99 -35 -27 -44 -29 -124 -29 -77 0 -91 3 -127 27 -107 71 -121 259 -26
352 21 20 52 41 68 45 48 15 133 12 173 -4z m439 -4 c40 -18 61 -46 77 -98 7
-22 5 -23 -44 -23 -44 0 -55 4 -72 25 -34 43 -118 31 -118 -17 0 -20 37 -38
118 -58 34 -8 65 -24 87 -45 30 -28 35 -39 35 -78 0 -88 -67 -132 -190 -125
-55 3 -74 9 -104 31 -34 26 -66 73 -66 97 0 6 23 10 54 10 46 0 56 -4 70 -24
28 -43 105 -46 127 -5 16 31 -1 44 -91 70 -46 13 -94 35 -113 50 -28 24 -32
33 -32 77 0 56 25 94 80 118 44 19 133 17 182 -5z m422 9 c39 -11 86 -51 107
-92 22 -43 18 -48 -41 -48 -48 0 -59 4 -79 27 -33 38 -95 39 -133 1 -53 -53
-39 -189 23 -217 46 -21 94 -9 122 31 10 14 26 18 68 18 31 0 54 -4 54 -10 0
-39 -79 -124 -125 -136 -14 -3 -56 -4 -95 -2 -58 3 -75 8 -107 34 -56 45 -83
104 -83 184 1 103 45 175 130 209 33 13 116 14 159 1z m962 -2 c53 -18 87 -45
116 -96 23 -39 28 -59 28 -112 -1 -95 -40 -161 -119 -202 -60 -31 -178 -23
-233 15 -61 42 -88 98 -88 182 1 103 43 173 125 209 42 18 124 20 171 4z m506
-9 c162 -78 163 -317 1 -400 -41 -21 -148 -26 -192 -9 -14 5 -43 26 -66 46
-118 107 -72 329 77 374 53 16 134 11 180 -11z m-1997 -868 c268 -60 461 -206
575 -436 59 -120 78 -216 79 -400 l1 -160 -615 -5 -615 -5 3 -35 c5 -47 37
-129 64 -167 65 -87 149 -127 268 -127 124 0 206 41 262 132 l20 32 289 0 289
0 -6 -28 c-11 -49 -74 -174 -120 -239 -115 -161 -330 -288 -547 -323 -112 -18
-340 -8 -436 20 -344 98 -563 348 -617 700 -26 175 -15 325 38 489 44 137 98
227 199 329 107 108 271 193 439 227 102 21 329 18 430 -4z m1795 -6 c122 -34
223 -91 304 -174 44 -43 90 -102 108 -136 32 -61 73 -191 73 -232 l0 -23 -249
0 -249 0 -13 38 c-19 58 -56 99 -115 128 -49 24 -62 26 -149 22 -87 -4 -97 -6
-132 -34 -50 -41 -62 -89 -36 -141 25 -52 89 -81 291 -133 337 -85 444 -132
546 -240 80 -86 106 -149 113 -276 10 -162 -27 -257 -142 -371 -82 -80 -170
-129 -301 -165 -69 -19 -103 -22 -274 -22 -169 0 -206 3 -275 22 -298 82 -499
280 -531 523 l-7 49 267 0 c245 0 267 -1 272 -17 38 -132 162 -206 312 -188
75 9 121 32 150 75 45 66 13 142 -75 181 -24 10 -130 41 -235 69 -337 89 -400
115 -500 209 -74 69 -103 122 -125 228 -13 63 -14 91 -5 154 34 236 210 399
502 464 90 20 391 14 475 -10z m-7015 -17 c5 -13 48 -149 95 -303 47 -154 106
-343 130 -420 61 -196 121 -392 136 -442 6 -23 15 -40 19 -38 4 2 16 35 28 72
11 37 64 210 117 383 53 173 112 362 130 420 18 58 50 160 71 228 l37 122 289
0 289 0 -7 -22 c-6 -21 -188 -527 -293 -818 -23 -63 -78 -214 -121 -335 -98
-274 -184 -511 -199 -547 l-11 -28 -333 0 -334 0 -16 43 c-9 23 -64 175 -122
337 -58 162 -137 381 -175 485 -37 105 -116 323 -175 485 -58 162 -112 312
-120 333 -28 71 -46 67 270 67 l285 0 10 -22z m2020 -853 l0 -875 -272 2 -273
3 -3 860 c-1 473 0 866 3 873 3 9 68 12 275 12 l270 0 0 -875z m734 798 c23
-70 222 -715 312 -1013 46 -151 48 -152 67 -94 21 65 302 974 336 1089 l27 90
287 3 c231 2 287 0 287 -11 0 -7 -27 -87 -59 -177 -33 -91 -98 -271 -144 -400
-47 -129 -105 -291 -130 -360 -85 -235 -136 -375 -202 -560 -36 -102 -71 -197
-77 -213 l-11 -27 -335 2 -335 3 -33 90 c-45 125 -189 523 -269 745 -106 296
-232 645 -280 777 -25 68 -45 125 -45 128 0 3 130 5 289 5 l289 0 26 -77z"/>
<path d="M4604 2710 c-42 -9 -49 -15 -68 -54 -18 -38 -21 -92 -6 -130 11 -30
65 -66 99 -66 43 0 90 38 101 82 29 105 -34 187 -126 168z"/>
<path d="M5040 2682 c-57 -57 -47 -154 20 -200 27 -18 44 -22 70 -18 39 6 86
50 96 91 10 41 -5 96 -36 127 -23 23 -37 28 -75 28 -38 0 -52 -5 -75 -28z"/>
<path d="M5551 2694 c-17 -14 -31 -34 -31 -45 0 -17 8 -19 100 -19 55 0 100 2
100 5 0 19 -29 59 -51 71 -42 21 -84 17 -118 -12z"/>
<path d="M7420 2708 c-62 -23 -88 -86 -69 -164 13 -50 52 -84 99 -84 36 0 89
35 101 68 16 41 6 129 -18 153 -25 26 -81 39 -113 27z"/>
<path d="M7865 2688 c-74 -64 -38 -209 56 -224 45 -7 100 29 115 75 16 50 2
120 -30 148 -37 31 -105 32 -141 1z"/>
<path d="M5682 1492 c-100 -36 -192 -145 -209 -247 l-6 -35 338 0 338 0 -6 54
c-10 98 -58 160 -167 217 -63 32 -212 38 -288 11z"/>
</g>
</svg>
